<?xml version="1.0" encoding="UTF-8" standalone="no"?>
<!-- Created with Inkscape (http://www.inkscape.org/) -->

<svg
   xmlns:dc="http://purl.org/dc/elements/1.1/"
   xmlns:cc="http://creativecommons.org/ns#"
   xmlns:rdf="http://www.w3.org/1999/02/22-rdf-syntax-ns#"
   xmlns:svg="http://www.w3.org/2000/svg"
   xmlns="http://www.w3.org/2000/svg"
   xmlns:sodipodi="http://sodipodi.sourceforge.net/DTD/sodipodi-0.dtd"
   xmlns:inkscape="http://www.inkscape.org/namespaces/inkscape"
   width="297mm"
   height="210mm"
   viewBox="0 0 297 210"
   version="1.1"
   id="svg8"
   inkscape:version="0.92.3 (2405546, 2018-03-11)"
   sodipodi:docname="Logo.svg">
  <defs
     id="defs2" />
  <sodipodi:namedview
     id="base"
     pagecolor="#ffffff"
     bordercolor="#666666"
     borderopacity="1.0"
     inkscape:pageopacity="0.0"
     inkscape:pageshadow="2"
     inkscape:zoom="0.49497475"
     inkscape:cx="858.40132"
     inkscape:cy="341.79883"
     inkscape:document-units="mm"
     inkscape:current-layer="layer1"
     showgrid="false"
     inkscape:window-width="1600"
     inkscape:window-height="875"
     inkscape:window-x="0"
     inkscape:window-y="0"
     inkscape:window-maximized="1" />
  <metadata
     id="metadata5">
    <rdf:RDF>
      <cc:Work
         rdf:about="">
        <dc:format>image/svg+xml</dc:format>
        <dc:type
           rdf:resource="http://purl.org/dc/dcmitype/StillImage" />
        <dc:title></dc:title>
      </cc:Work>
    </rdf:RDF>
  </metadata>
  <g
     inkscape:label="Camada 1"
     inkscape:groupmode="layer"
     id="layer1"
     transform="translate(0,-87)">
    <g
       id="g3810"
       transform="translate(9.0871639,26.726953)">
      <g
         inkscape:export-ydpi="96"
         inkscape:export-xdpi="96"
         transform="matrix(0.62479784,0,0,0.62479784,17.709589,94.047611)"
         id="g3777">
        <path
           style="fill:#37abc8;stroke-width:0.26458332"
           d="m 44.738725,61.149657 -0.860412,4.233333 c -0.4733,2.328331 -0.981556,4.828924 -1.129646,5.557284 l -0.269235,1.324468 -2.177645,0.747241 c -1.197621,0.41103 -3.33203,1.288587 -4.743381,1.950268 -1.411349,0.66168 -2.74387,1.134914 -2.961058,1.051615 -0.217181,-0.08334 -2.383152,-1.48042 -4.813144,-3.104719 l -4.418335,-2.953308 -7.002673,7.00319 -7.0031899,7.00319 2.9533089,4.417817 c 1.624299,2.429991 3.021419,4.595963 3.10472,4.813144 0.08335,0.217188 -0.389936,1.549709 -1.051616,2.961058 -0.66168,1.411351 -1.539238,3.54575 -1.950268,4.743382 l -0.747242,2.17764 -1.324467,0.26924 c -0.7283599,0.14809 -3.2294599,0.65635 -5.5577999,1.12965 l -4.23333298,0.86092 v 9.92188 9.92187 l 4.23333298,0.86042 c 2.32834,0.47329 4.82944,0.98155 5.5577999,1.12964 l 1.324467,0.26924 0.747242,2.17764 c 0.41103,1.19763 1.288588,3.33202 1.950268,4.74338 0.66168,1.41135 1.134915,2.74388 1.051616,2.96106 -0.08334,0.21719 -1.480421,2.38314 -3.10472,4.81314 l -2.9533089,4.41834 7.0031899,7.00267 7.002673,7.00319 4.453993,-2.97708 c 2.449679,-1.63745 4.652597,-3.02933 4.895307,-3.09283 0.242711,-0.0635 1.380657,0.3533 2.528528,0.92604 1.147871,0.57274 3.217796,1.43673 4.600236,1.91978 1.382451,0.48306 2.543921,0.89727 2.580722,0.92087 0.03685,0.0236 0.543055,2.41399 1.124995,5.31182 0.581941,2.89782 1.114373,5.41908 1.182873,5.60276 0.09794,0.26258 2.237835,0.31909 9.987505,0.26459 l 9.862443,-0.0693 0.86093,-4.23333 c 0.47329,-2.32833 0.98156,-4.82944 1.12965,-5.5578 l 0.26924,-1.32447 2.17764,-0.74724 c 1.19763,-0.41103 3.33203,-1.28858 4.74338,-1.95027 1.41135,-0.66168 2.74387,-1.13492 2.96106,-1.05162 0.21718,0.0833 2.38315,1.48041 4.81314,3.10472 l 4.41782,2.95331 7.00319,-7.00319 7.00319,-7.00267 -2.95331,-4.41834 c -1.6243,-2.43 -3.02142,-4.59595 -3.10472,-4.81314 -0.0833,-0.21718 0.38994,-1.54971 1.05162,-2.96106 0.66168,-1.41136 1.53924,-3.54575 1.95027,-4.74338 l 0.74724,-2.17764 1.32446,-0.26924 c 0.72835,-0.14809 3.228959,-0.65635 5.557289,-1.12964 l 4.23333,-0.86042 v -9.92187 -9.92188 l -4.23333,-0.86092 c -2.32833,-0.4733 -4.828639,-0.98178 -5.556249,-1.13017 l -1.32292,-0.26975 -0.89452,-2.574 c -0.49211,-1.415613 -1.36479,-3.51283 -1.93942,-4.660701 -0.57463,-1.147871 -0.99315,-2.285817 -0.92965,-2.528528 0.0635,-0.242699 1.45537,-2.445639 3.09283,-4.895307 l 2.97708,-4.453475 -7.00319,-7.00319 -7.00319,-7.00319 -4.41782,2.953308 c -2.42999,1.624299 -4.59596,3.02142 -4.81314,3.104719 -0.21719,0.08334 -1.54971,-0.389935 -2.96106,-1.051615 -1.41135,-0.661681 -3.54575,-1.539238 -4.74338,-1.950268 l -2.17764,-0.747241 -0.26924,-1.324468 c -0.14809,-0.72836 -0.65636,-3.228953 -1.12965,-5.557284 l -0.86093,-4.233333 H 54.6606 Z m 9.724988,20.580656 c 2.176208,-0.01436 4.354851,0.185611 6.539138,0.599964 12.65018,2.3997 23.08237,12.27114 26.17204,24.765933 1.94708,7.87408 1.09581,15.76394 -2.48305,23.01668 -4.62262,9.36799 -13.47314,16.10882 -23.74687,18.08727 -2.71356,0.52256 -7.927042,0.71142 -10.385413,0.3762 -11.30655,-1.54174 -20.823716,-8.30609 -25.911595,-18.41696 -3.63619,-7.22601 -4.477721,-15.48111 -2.394688,-23.48797 2.985571,-11.476053 12.345765,-20.836762 23.821802,-23.822323 2.796622,-0.72756 5.590651,-1.100334 8.388636,-1.118794 z m 0.60048,4.555279 c -4.435877,-0.06593 -8.885008,0.888896 -12.971301,2.89543 -3.158059,1.550728 -5.342118,3.108399 -7.875487,5.61671 -0.553151,0.547714 -1.077548,1.117656 -1.57975,1.702739 a 27.917568,27.917568 0 0 0 -7.170106,18.634519 27.917568,27.917568 0 0 0 3.667993,13.7635 c 0.221594,0.40743 0.451136,0.80993 0.691431,1.20561 a 27.917568,27.917568 0 0 0 0.117824,0.18707 c 4.620487,7.48072 12.527465,12.77285 21.27622,13.77384 2.85991,0.32726 3.692305,0.32892 6.526217,0.0129 13.657027,-1.52285 24.280907,-12.25593 25.763807,-26.0289 1.08199,-10.04963 -3.7897,-20.635714 -12.19978,-26.510015 -4.86221,-3.39617 -10.5438,-5.168659 -16.247068,-5.253423 z"
           id="path3764"
           inkscape:connector-curvature="0" />
        <circle
           style="fill:#ff5555;stroke-width:0.26458332"
           id="path3771"
           cx="54.660603"
           cy="115.30097"
           r="29.934185" />
        <text
           xml:space="preserve"
           style="font-style:normal;font-variant:normal;font-weight:normal;font-stretch:normal;font-size:65.53547668px;line-height:1.25;font-family:Dyuthi;-inkscape-font-specification:'Dyuthi, Normal';font-variant-ligatures:normal;font-variant-caps:normal;font-variant-numeric:normal;font-feature-settings:normal;text-align:start;letter-spacing:0px;word-spacing:0px;writing-mode:lr-tb;text-anchor:start;fill:#ffffff;fill-opacity:1;stroke:none;stroke-width:1.43227959"
           x="34.673588"
           y="135.31682"
           id="text12"><tspan
             sodipodi:role="line"
             id="tspan10"
             x="34.673588"
             y="135.31682"
             style="font-style:normal;font-variant:normal;font-weight:normal;font-stretch:normal;font-size:65.53547668px;font-family:Dyuthi;-inkscape-font-specification:'Dyuthi, Normal';font-variant-ligatures:normal;font-variant-caps:normal;font-variant-numeric:normal;font-feature-settings:normal;text-align:start;writing-mode:lr-tb;text-anchor:start;fill:#ffffff;stroke-width:1.43227959">D</tspan></text>
      </g>
      <text
         id="text3781"
         y="170.76651"
         x="97.553329"
         style="font-style:normal;font-variant:normal;font-weight:bold;font-stretch:normal;font-size:48.25119019px;line-height:1.25;font-family:Uroob;-inkscape-font-specification:'Uroob, Bold';font-variant-ligatures:normal;font-variant-caps:normal;font-variant-numeric:normal;font-feature-settings:normal;text-align:start;letter-spacing:0px;word-spacing:0px;writing-mode:lr-tb;text-anchor:start;fill:#000000;fill-opacity:1;stroke:none;stroke-width:6.27690697"
         xml:space="preserve"><tspan
           style="font-style:normal;font-variant:normal;font-weight:bold;font-stretch:normal;font-size:48.25119019px;font-family:Uroob;-inkscape-font-specification:'Uroob, Bold';font-variant-ligatures:normal;font-variant-caps:normal;font-variant-numeric:normal;font-feature-settings:normal;text-align:start;writing-mode:lr-tb;text-anchor:start;fill:#000000;fill-opacity:1;stroke-width:6.27690697"
           y="170.76651"
           x="97.553329"
           id="tspan3779"
           sodipodi:role="line">Dostawa</tspan></text>
      <text
         id="text3781-2"
         y="192.0731"
         x="98.765205"
         style="font-style:normal;font-variant:normal;font-weight:bold;font-stretch:normal;font-size:31.43497086px;line-height:1.25;font-family:Uroob;-inkscape-font-specification:'Uroob, Bold';font-variant-ligatures:normal;font-variant-caps:normal;font-variant-numeric:normal;font-feature-settings:normal;text-align:start;letter-spacing:0px;word-spacing:0px;writing-mode:lr-tb;text-anchor:start;fill:#999999;fill-opacity:1;stroke:none;stroke-width:3.60477901"
         xml:space="preserve"><tspan
           style="font-style:normal;font-variant:normal;font-weight:bold;font-stretch:normal;font-size:31.43497086px;font-family:Uroob;-inkscape-font-specification:'Uroob, Bold';font-variant-ligatures:normal;font-variant-caps:normal;font-variant-numeric:normal;font-feature-settings:normal;text-align:start;writing-mode:lr-tb;text-anchor:start;fill:#999999;fill-opacity:1;stroke-width:3.60477901"
           y="192.0731"
           x="98.765205"
           id="tspan3779-5"
           sodipodi:role="line">API FRAMEWORK</tspan></text>
    </g>
  </g>
</svg>
